# xmcd
# Copyright (C) 1995-1998 Ti Kan
#
# Track frame offsets:
#       150
#       20615
#       40225
#       52877
#       77216
#       99450
#       124869
#       137666
#       148685
#       166886
#       195401
#       208156
#       227539
#       251817
#       272656
#       285428
#       307462
#       310978
#
# Disc length: 4441 seconds
#
# Revision: 2
# Processed by: cddbd v1.5.1PL0 Copyright (c) Steve Scherf et al.
# Submitted via: CD-Transfer v1.0
#
DISCID=06115712
DTITLE=Good Counselors - Tracing Treasures
DYEAR=2004
DGENRE=
TTITLE0=Rain
TTITLE1=Let Them Dance
TTITLE2=(Not) Killing A Boy
TTITLE3=Silverback
TTITLE4=Zoo
TTITLE5=Slugtalk
TTITLE6=Centerpiece
TTITLE7=Repressions
TTITLE8=Mirage Girl
TTITLE9=Bad Counselors
TTITLE10=All These Popsongs I
TTITLE11=All These Popsongs Ii
TTITLE12=Please Give Me Your Love
TTITLE13=Piece Of Dirt
TTITLE14=The Tree
TTITLE15=Voice Behind The Curtain
TTITLE16=September
TTITLE17=Summer
EXTD=
EXTT0=
EXTT1=
EXTT2=
EXTT3=
EXTT4=
EXTT5=
EXTT6=
EXTT7=
EXTT8=
EXTT9=
EXTT10=
EXTT11=
EXTT12=
EXTT13=
EXTT14=
EXTT15=
EXTT16=
EXTT17=
PLAYORDER=
